<?xml version="1.0" encoding="utf-8"?>
<!-- Generator: Adobe Illustrator 18.0.0, SVG Export Plug-In . SVG Version: 6.00 Build 0)  -->
<!DOCTYPE svg PUBLIC "-//W3C//DTD SVG 1.1//EN" "http://www.w3.org/Graphics/SVG/1.1/DTD/svg11.dtd">
<svg version="1.1" id="Icon_Set" xmlns="http://www.w3.org/2000/svg" xmlns:xlink="http://www.w3.org/1999/xlink" x="0px" y="0px"
	 viewBox="0 0 512 512" style="enable-background:new 0 0 512 512;" xml:space="preserve">
<style type="text/css">
	.st0{fill:#1f2937;}
	.st1{fill:#a7a7a79c;}
	.st2{fill:#894e20;}
	.st3{fill:#532e12e0;}
	.st4{fill:#D3E6F8;}
	.st5{fill:#0c5189;}
	.st6{fill:#7BABF1;}
	.st7{fill:#FFFFFF;}
</style>
<g>
	<g>
		<g>
			<g>
				<circle class="st1" cx="256" cy="256" r="207"/>
			</g>
		</g>
	</g>
	<g>
		<g>
			<g>
				<g>
					<rect x="5.862" y="409.687" class="st5" width="500.275" height="35.526"/>
				</g>
			</g>
			<g>
				<g>
					<rect x="5.862" y="374.161" class="st4" width="500.275" height="35.526"/>
				</g>
			</g>
			<g>
				<g>
					<rect x="5.862" y="303.108" class="st2" width="244.815" height="35.526"/>
				</g>
			</g>
			<g>
				<g>
					<rect x="5.862" y="338.635" class="st7" width="500.275" height="35.526"/>
				</g>
			</g>
			<g>
				<g>
					<rect x="437.528" y="338.635" class="st4" width="68.609" height="35.526"/>
				</g>
			</g>
			<g>
				<g>
					<rect x="182.067" y="303.108" class="st3" width="68.61" height="35.526"/>
				</g>
			</g>
			<g>
				<g>
					<rect x="437.528" y="374.161" class="st5" width="68.609" height="35.526"/>
				</g>
			</g>
			<g>
				<g>
					<rect x="437.528" y="409.687" class="st6" width="68.609" height="35.526"/>
				</g>
			</g>
			<g>
				<g>
					<path class="st0" d="M506.137,451.076H5.862c-3.237,0-5.862-2.625-5.862-5.863v-35.526c0-3.237,2.625-5.862,5.862-5.862
						h500.275c3.238,0,5.863,2.625,5.863,5.862v35.526C512,448.451,509.375,451.076,506.137,451.076z M11.725,439.351h488.549
						v-23.801H11.725V439.351z"/>
				</g>
			</g>
			<g>
				<g>
					<path class="st0" d="M506.137,415.549H5.862c-3.237,0-5.862-2.624-5.862-5.863v-35.525c0-3.238,2.625-5.863,5.862-5.863
						h500.275c3.238,0,5.863,2.625,5.863,5.863v35.525C512,412.925,509.375,415.549,506.137,415.549z M11.725,403.824h488.549
						v-23.801H11.725V403.824z"/>
				</g>
			</g>
			<g>
				<g>
					<path class="st0" d="M506.137,380.023H5.862c-3.237,0-5.862-2.625-5.862-5.862v-35.526c0-3.238,2.625-5.862,5.862-5.862
						h500.275c3.238,0,5.863,2.624,5.863,5.862v35.526C512,377.398,509.375,380.023,506.137,380.023z M11.725,368.298h488.549
						v-23.801H11.725V368.298z"/>
				</g>
			</g>
			<g>
				<g>
					<path class="st0" d="M250.676,344.497H5.862c-3.237,0-5.862-2.625-5.862-5.862v-35.526c0-3.238,2.625-5.862,5.862-5.862
						h244.814c3.238,0,5.863,2.625,5.863,5.862v35.526C256.539,341.872,253.914,344.497,250.676,344.497z M11.725,332.772h233.089
						v-23.801H11.725V332.772z"/>
				</g>
			</g>
		</g>
		<g>
			<g>
				<g>
					<polygon class="st7" points="194.946,124.272 354.145,283.471 328.051,309.565 308.578,316.002 311.674,296.519 
						290.993,301.747 292.274,281.662 273.408,287.492 274.647,267.45 255.823,273.237 257.061,253.195 238.238,258.982 
						238.644,239.773 220.653,244.727 222.724,223.853 203.068,230.473 204.4,210.337 185.483,216.218 187.554,195.344 
						167.898,201.963 171.451,179.607 150.313,187.708 152.384,166.834 					"/>
				</g>
			</g>
			<g>
				<g>
					<polygon class="st4" points="180.088,141.621 341.552,296.064 354.145,283.471 194.946,124.272 					"/>
				</g>
			</g>
			<g>
				<g>
					<path class="st2" d="M142.909,72.235c-7.28-7.28-19.082-7.28-26.362,0l-32.821,32.821c-7.28,7.279-7.28,19.082,0,26.362
						l36.949,36.949l33.165-2.988l41.106-41.105L142.909,72.235z M139.681,143.495H125.97l-22.32-22.32l29.016-29.017l29.176,29.176
						L139.681,143.495z"/>
				</g>
			</g>
			<g>
				<g>
					<polygon class="st3" points="176.925,106.251 161.842,121.334 139.681,143.495 117.742,165.434 120.675,168.366 
						153.84,165.378 194.946,124.272 					"/>
				</g>
			</g>
			<g>
				<g>
					<path class="st0" d="M139.681,149.357H125.97c-1.555,0-3.046-0.618-4.146-1.717l-22.32-22.321c-1.1-1.1-1.717-2.59-1.717-4.146
						s0.618-3.046,1.717-4.146l29.017-29.016c2.29-2.29,6.002-2.29,8.291,0l29.176,29.176c2.289,2.29,2.289,6.002,0,8.291
						l-22.161,22.161C142.727,148.74,141.235,149.357,139.681,149.357z M128.398,137.632h8.854l16.298-16.298l-20.884-20.885
						l-20.726,20.725L128.398,137.632z"/>
				</g>
			</g>
			<g>
				<g>
					<path class="st0" d="M120.674,174.229c-1.547,0-3.04-0.612-4.145-1.717l-36.949-36.948c-9.554-9.554-9.554-25.1,0-34.653
						l32.821-32.82c9.554-9.554,25.099-9.554,34.653,0l52.037,52.037c1.099,1.1,1.717,2.59,1.717,4.146
						c0,1.555-0.618,3.046-1.717,4.146l-41.106,41.105c-0.971,0.971-2.251,1.57-3.619,1.693l-33.165,2.988
						C121.024,174.221,120.849,174.229,120.674,174.229z M129.728,72.644c-3.272,0-6.544,1.246-9.036,3.737l-32.821,32.82
						c-2.414,2.413-3.743,5.622-3.743,9.036c0,3.413,1.329,6.623,3.743,9.036l35.009,35.009l28.316-2.552l35.458-35.457
						l-47.892-47.892C136.272,73.89,133,72.644,129.728,72.644z"/>
				</g>
			</g>
			<g>
				<g>
					<g>
						<path class="st0" d="M308.579,321.864c-1.324,0-2.632-0.448-3.693-1.308c-1.627-1.319-2.427-3.406-2.098-5.474l3.552-22.356
							c0.509-3.198,3.516-5.376,6.71-4.87c3.198,0.508,5.378,3.512,4.871,6.71l-1.959,12.327l11.656-4.467
							c3.025-1.157,6.414,0.353,7.572,3.376c1.159,3.024-0.353,6.414-3.377,7.572l-21.137,8.102
							C309.996,321.737,309.285,321.864,308.579,321.864z"/>
					</g>
				</g>
				<g>
					<g>
						<path class="st0" d="M329.716,313.763c-1.5,0-3.001-0.572-4.145-1.717c-2.29-2.29-2.29-6.002,0-8.292l20.284-20.283
							L194.946,132.564l-35.589,35.589l-1.661,10.448l11.656-4.467c1.957-0.75,4.164-0.398,5.79,0.92
							c1.627,1.319,2.427,3.406,2.098,5.475l-1.959,12.327l11.656-4.467c3.023-1.16,6.414,0.353,7.572,3.376
							c1.159,3.023-0.353,6.413-3.376,7.572l-21.137,8.102c-1.955,0.75-4.163,0.399-5.79-0.92c-1.627-1.319-2.427-3.406-2.098-5.474
							l1.959-12.329l-11.656,4.468c-1.955,0.749-4.163,0.398-5.79-0.92c-1.627-1.319-2.427-3.406-2.098-5.474l3.552-22.356
							c0.194-1.222,0.77-2.352,1.645-3.226l41.08-41.08c2.29-2.29,6.002-2.29,8.291,0L358.29,279.326c2.29,2.289,2.29,6.001,0,8.291
							l-24.429,24.429C332.717,313.19,331.216,313.763,329.716,313.763z"/>
					</g>
				</g>
				<g>
					<g>
						<path class="st0" d="M290.994,307.609c-1.324,0-2.632-0.448-3.693-1.308c-1.627-1.319-2.427-3.406-2.098-5.474l3.553-22.356
							c0.508-3.198,3.517-5.376,6.709-4.87c3.198,0.508,5.379,3.512,4.871,6.71l-1.959,12.328l11.655-4.467
							c3.027-1.158,6.415,0.354,7.573,3.376c1.159,3.023-0.353,6.414-3.376,7.572l-21.138,8.102
							C292.411,307.482,291.7,307.609,290.994,307.609z"/>
					</g>
				</g>
				<g>
					<g>
						<path class="st0" d="M273.409,293.354c-1.324,0-2.632-0.448-3.693-1.308c-1.626-1.319-2.427-3.406-2.098-5.474l1.959-12.328
							l-11.655,4.468c-1.955,0.75-4.163,0.398-5.79-0.92c-1.627-1.319-2.427-3.406-2.099-5.475l3.553-22.357
							c0.509-3.198,3.514-5.377,6.71-4.87c3.198,0.508,5.378,3.513,4.87,6.71l-1.959,12.328l11.655-4.467
							c1.954-0.75,4.162-0.399,5.79,0.919c1.627,1.319,2.427,3.406,2.099,5.475l-1.959,12.328l11.655-4.467
							c3.027-1.157,6.414,0.354,7.573,3.376c1.159,3.023-0.352,6.414-3.376,7.573l-21.137,8.102
							C274.826,293.228,274.115,293.354,273.409,293.354z"/>
					</g>
				</g>
				<g>
					<g>
						<path class="st0" d="M238.239,264.845c-1.324,0-2.632-0.449-3.692-1.308c-1.627-1.319-2.427-3.406-2.099-5.475l1.959-12.328
							l-11.656,4.468c-1.956,0.749-4.163,0.398-5.79-0.92c-1.627-1.319-2.427-3.406-2.098-5.474l3.552-22.356
							c0.508-3.198,3.516-5.378,6.71-4.871c3.198,0.509,5.378,3.513,4.87,6.71l-1.959,12.328l11.656-4.467
							c1.955-0.75,4.163-0.399,5.79,0.919c1.627,1.319,2.427,3.406,2.099,5.474l-1.959,12.328l11.655-4.467
							c3.028-1.159,6.415,0.354,7.573,3.376c1.159,3.023-0.353,6.414-3.376,7.573l-21.137,8.102
							C239.656,264.718,238.945,264.845,238.239,264.845z"/>
					</g>
				</g>
				<g>
					<g>
						<path class="st0" d="M203.069,236.336c-1.324,0-2.632-0.449-3.693-1.309c-1.627-1.319-2.427-3.406-2.098-5.474l1.959-12.328
							l-11.656,4.467c-1.956,0.751-4.163,0.399-5.79-0.92c-1.627-1.319-2.427-3.406-2.099-5.474l3.553-22.356
							c0.509-3.198,3.513-5.378,6.71-4.871c3.198,0.508,5.378,3.512,4.87,6.71l-1.959,12.328l11.656-4.467
							c1.955-0.751,4.162-0.399,5.79,0.92c1.627,1.319,2.427,3.406,2.098,5.474l-1.959,12.328l11.656-4.467
							c3.027-1.157,6.415,0.352,7.572,3.376c1.159,3.023-0.353,6.413-3.376,7.572l-21.137,8.102
							C204.486,236.208,203.775,236.336,203.069,236.336z"/>
					</g>
				</g>
			</g>
		</g>
	</g>
</g>
</svg>
